<?xml version="1.0" encoding="UTF-8"?>
<svg id="Capa_1" data-name="Capa 1" xmlns="http://www.w3.org/2000/svg" viewBox="0 0 169.68 18.66">
  <defs>
    <style>
      .cls-1 {
        fill: #1d1d1b;
      }

      .cls-2 {
        fill: #c6a24c;
      }
    </style>
  </defs>
  <path class="cls-1" d="M1.17,1.05h12.36v3.59h-7.62v3.21h7.13v3.61h-7.13v6.12H1.17V1.05Z"/>
  <path class="cls-1" d="M20.81,1.05v16.53h-4.86V1.05h4.86Z"/>
  <path class="cls-1" d="M27.67,4.64h-4.73V1.05h14.26v3.59h-4.68v12.94h-4.85V4.64Z"/>
  <path class="cls-1" d="M44.18,17.58v-5.73c0-.22-.02-.38-.17-.63l-5.66-10.18h5.47c1.06,2.33,2.24,5.01,3,6.9.67-1.81,2.06-4.78,3.04-6.9h5.05l-5.73,10.16c-.08.14-.15.29-.15.62v5.75h-4.86Z"/>
  <path class="cls-1" d="M65.4,17.58l-2.78-5.38h-.05l-2.83,5.38h-5.17l5.14-8.24-5.03-8.29h5.6l2.58,5.1h.07l2.66-5.1h5.09l-5.03,7.8,5.33,8.73h-5.58Z"/>
  <path class="cls-2" d="M72.49,1.05h7.1c5.26,0,8.31,3.33,8.31,8.08s-2.97,8.45-8.39,8.45h-7.03V1.05ZM77.34,14.07h1.86c2.63,0,3.71-1.84,3.71-4.94,0-2.74-1-4.58-3.65-4.58h-1.91v9.51Z"/>
  <path class="cls-2" d="M95.45,1.05v16.53h-4.86V1.05h4.86Z"/>
  <path class="cls-2" d="M114.14,17.58h-3.25c-.13-.45-.26-1.12-.3-1.5-.93,1.23-2.54,1.84-4.84,1.84-5.06,0-7.61-3.83-7.61-8.41,0-5.07,2.95-8.76,8.46-8.76,4.99,0,7.29,2.85,7.59,5.39h-4.8c-.24-.88-.85-1.98-2.81-1.98-2.77,0-3.45,2.54-3.45,5.18s.79,5.14,3.46,5.14c2.44,0,2.87-1.79,2.87-2.88v-.11h-3.03v-3.39h7.71v9.48Z"/>
  <path class="cls-2" d="M122.13,1.05v16.53h-4.86V1.05h4.86Z"/>
  <path class="cls-2" d="M129,4.64h-4.73V1.05h14.26v3.59h-4.68v12.94h-4.85V4.64Z"/>
  <path class="cls-2" d="M142.88,14.36l-.96,3.21h-4.72l5.22-16.53h6.27l5.43,16.53h-5.06l-1-3.21h-5.19ZM147.22,10.77c-.78-2.6-1.41-4.91-1.79-6.52h-.07c-.38,1.78-1.01,4.14-1.68,6.52h3.54Z"/>
  <path class="cls-2" d="M155.87,1.05h4.86v12.94h7.79l-.52,3.59h-12.12V1.05Z"/>
</svg>